<svg width="19" height="20" viewBox="0 0 19 20" fill="none" xmlns="http://www.w3.org/2000/svg">
<path d="M15.04 6.31063C15.6924 6.31063 16.3181 6.05145 16.7795 5.59011C17.2408 5.12877 17.5 4.50306 17.5 3.85062C17.5 3.19819 17.2408 2.57248 16.7795 2.11114C16.3181 1.6498 15.6924 1.39062 15.04 1.39062C14.3876 1.39063 13.7619 1.6498 13.3005 2.11114C12.8392 2.57248 12.58 3.19819 12.58 3.85062C12.58 4.50306 12.8392 5.12877 13.3005 5.59011C13.7619 6.05145 14.3876 6.31063 15.04 6.31063ZM3.96 6.31063C4.61243 6.31063 5.23814 6.05145 5.69948 5.59011C6.16082 5.12877 6.42 4.50306 6.42 3.85062C6.42 3.19819 6.16082 2.57248 5.69948 2.11114C5.23814 1.6498 4.61243 1.39062 3.96 1.39062C3.30757 1.39063 2.68186 1.6498 2.22052 2.11114C1.75918 2.57248 1.5 3.19819 1.5 3.85062C1.5 4.50306 1.75918 5.12877 2.22052 5.59011C2.68186 6.05145 3.30757 6.31063 3.96 6.31063ZM15.04 18.6106C15.3631 18.6106 15.6829 18.547 15.9814 18.4234C16.2799 18.2997 16.551 18.1185 16.7795 17.8901C17.0079 17.6617 17.1891 17.3905 17.3127 17.092C17.4364 16.7936 17.5 16.4737 17.5 16.1506C17.5 15.8276 17.4364 15.5077 17.3127 15.2092C17.1891 14.9108 17.0079 14.6396 16.7795 14.4111C16.551 14.1827 16.2799 14.0015 15.9814 13.8779C15.6829 13.7543 15.3631 13.6906 15.04 13.6906C14.3876 13.6906 13.7619 13.9498 13.3005 14.4111C12.8392 14.8725 12.58 15.4982 12.58 16.1506C12.58 16.8031 12.8392 17.4288 13.3005 17.8901C13.7619 18.3514 14.3876 18.6106 15.04 18.6106ZM3.96 18.6106C4.28305 18.6106 4.60294 18.547 4.9014 18.4234C5.19986 18.2997 5.47105 18.1185 5.69948 17.8901C5.92792 17.6617 6.10912 17.3905 6.23274 17.092C6.35637 16.7936 6.42 16.4737 6.42 16.1506C6.42 15.8276 6.35637 15.5077 6.23274 15.2092C6.10912 14.9108 5.92792 14.6396 5.69948 14.4111C5.47105 14.1827 5.19986 14.0015 4.9014 13.8779C4.60294 13.7543 4.28305 13.6906 3.96 13.6906C3.30757 13.6906 2.68186 13.9498 2.22052 14.4111C1.75918 14.8725 1.5 15.4982 1.5 16.1506C1.5 16.8031 1.75918 17.4288 2.22052 17.8901C2.68186 18.3514 3.30757 18.6106 3.96 18.6106Z" stroke="black" stroke-width="1.5" stroke-miterlimit="10" stroke-linecap="round" stroke-linejoin="round"/>
</svg>
