<svg width="24" height="24" viewBox="0 0 24 24" fill="none" xmlns="http://www.w3.org/2000/svg">
<path d="M10.84 13.5431H9.34C8.19 13.5431 7.26 12.5831 7.26 11.3931C7.26 10.9831 7.6 10.6431 8.01 10.6431C8.42 10.6431 8.76 10.9831 8.76 11.3931C8.76 11.7531 9.02 12.0431 9.34 12.0431H10.84C11.07 12.0431 11.25 11.8331 11.25 11.5731C11.25 11.2231 11.19 11.2031 10.96 11.1231L8.55 10.2831C7.68 9.98312 7.25 9.37313 7.25 8.42313C7.25 7.34313 8.11 6.45312 9.16 6.45312H10.66C11.81 6.45312 12.74 7.41313 12.74 8.60313C12.74 9.01313 12.4 9.35313 11.99 9.35313C11.58 9.35313 11.24 9.01313 11.24 8.60313C11.24 8.24313 10.98 7.95312 10.66 7.95312H9.16C8.93 7.95312 8.75 8.16313 8.75 8.42313C8.75 8.77313 8.81 8.79313 9.04 8.87313L11.45 9.71313C12.32 10.0231 12.74 10.6331 12.74 11.5731C12.75 12.6631 11.89 13.5431 10.84 13.5431Z" fill="black"/>
<path d="M10 14.3383C9.59 14.3383 9.25 13.9983 9.25 13.5883V12.8483C9.25 12.4383 9.59 12.0983 10 12.0983C10.41 12.0983 10.75 12.4383 10.75 12.8483V13.5883C10.75 14.0083 10.41 14.3383 10 14.3383ZM10 7.93625C9.59 7.93625 9.25 7.59625 9.25 7.18625V6.40625C9.25 5.99625 9.59 5.65625 10 5.65625C10.41 5.65625 10.75 5.99625 10.75 6.40625V7.18625C10.75 7.59625 10.41 7.93625 10 7.93625Z" fill="black"/>
<path d="M9.99 18.7144C5.17 18.7144 1.25 14.7944 1.25 9.97437C1.25 5.15437 5.17 1.23438 9.99 1.23438C14.81 1.23438 18.73 5.15437 18.73 9.97437C18.73 14.7944 14.8 18.7144 9.99 18.7144ZM9.99 2.74437C6 2.74437 2.75 5.99438 2.75 9.98438C2.75 13.9744 6 17.2144 9.99 17.2144C13.98 17.2144 17.23 13.9644 17.23 9.97437C17.23 5.98438 13.98 2.74437 9.99 2.74437Z" fill="black"/>
<path d="M17.021 22.7187C16.1071 22.7184 15.2067 22.4984 14.3957 22.0773C13.5847 21.6561 12.8868 21.0461 12.361 20.2987C12.2456 20.1356 12.1997 19.9333 12.2335 19.7364C12.2672 19.5395 12.3778 19.3641 12.541 19.2487C12.7041 19.1333 12.9063 19.0875 13.1032 19.1212C13.3001 19.155 13.4756 19.2656 13.591 19.4287C14.1043 20.1586 14.8369 20.7059 15.6824 20.9911C16.5279 21.2763 17.4423 21.2847 18.2928 21.0149C19.1434 20.7451 19.8858 20.2113 20.4124 19.4909C20.9389 18.7705 21.2221 17.901 21.221 17.0087C21.221 15.6587 20.561 14.3787 19.461 13.5887C19.2992 13.472 19.1904 13.2958 19.1585 13.0989C19.1266 12.902 19.1743 12.7005 19.291 12.5387C19.4076 12.3769 19.5838 12.2681 19.7807 12.2362C19.9777 12.2044 20.1792 12.252 20.341 12.3687C21.077 12.8981 21.6767 13.5949 22.0905 14.4017C22.5043 15.2084 22.7204 16.102 22.721 17.0087C22.7223 17.7581 22.5758 18.5004 22.2899 19.1931C22.0041 19.8858 21.5844 20.5153 21.055 21.0457C20.5256 21.576 19.8968 21.9968 19.2046 22.2839C18.5124 22.5709 17.7703 22.7187 17.021 22.7187Z" fill="black"/>
</svg>
