<svg width="20" height="22" viewBox="0 0 20 22" fill="none" xmlns="http://www.w3.org/2000/svg">
<path d="M6.58219 21.5503C6.36219 21.5503 6.13219 21.5103 5.92219 21.4203C5.45219 21.2203 5.09219 20.8303 4.93219 20.3403L4.49219 19.0203C4.29219 18.4203 4.47219 17.6703 4.91219 17.2203L7.18219 14.9403C7.21219 14.9103 7.25219 14.8003 7.25219 14.7503V12.2803L2.69219 14.2503C2.08219 14.5103 1.46219 14.4803 0.992188 14.1703C0.522188 13.8603 0.242188 13.3003 0.242188 12.6503V11.3603C0.242188 10.3803 0.942187 9.33031 1.83219 8.98031L7.24219 6.64031V3.80031C7.24219 2.59031 8.09219 1.20031 9.17219 0.640312C9.69219 0.380313 10.2922 0.380313 10.8022 0.640312C11.8922 1.20031 12.7422 2.58031 12.7422 3.79031V6.63031L18.1822 8.97031C19.0722 9.35031 19.7522 10.3703 19.7522 11.3603V12.6503C19.7522 13.3103 19.4822 13.8603 19.0022 14.1703C18.5222 14.4803 17.9122 14.5103 17.3022 14.2603L12.7422 12.2903V14.7603C12.7422 14.8003 12.7822 14.9003 12.8122 14.9303L15.0922 17.2203C15.5322 17.6603 15.7122 18.4303 15.5122 19.0203L15.0722 20.3403C14.9022 20.8303 14.5422 21.2203 14.0622 21.4103C13.5922 21.6003 13.0722 21.5803 12.6222 21.3603C12.5722 21.3303 12.5222 21.3003 12.4722 21.2603L10.1422 19.3003C10.0622 19.2303 9.90219 19.2403 9.83219 19.3003L7.50219 21.2603C7.46219 21.3003 7.41219 21.3303 7.36219 21.3503C7.12219 21.4903 6.85219 21.5503 6.58219 21.5503ZM7.56219 10.6403C7.79219 10.6403 8.01219 10.7003 8.20219 10.8303C8.55219 11.0603 8.75219 11.4503 8.75219 11.9103V14.7603C8.75219 15.1903 8.54219 15.7003 8.24219 16.0003L5.97219 18.2803C5.93219 18.3303 5.89219 18.4803 5.91219 18.5403L6.35219 19.8703C6.38219 19.9703 6.45219 20.0103 6.49219 20.0303C6.52219 20.0403 6.57219 20.0603 6.63219 20.0403L8.87219 18.1503C9.50219 17.6103 10.4922 17.6103 11.1222 18.1503L13.3522 20.0303C13.4222 20.0403 13.4722 20.0303 13.5022 20.0203C13.5422 20.0003 13.6222 19.9603 13.6522 19.8603L14.0922 18.5403C14.1122 18.4703 14.0722 18.3203 14.0322 18.2803L11.7622 16.0003C11.4622 15.7203 11.2422 15.2003 11.2422 14.7603V11.9103C11.2422 11.4603 11.4322 11.0703 11.7722 10.8403C12.1122 10.6103 12.5522 10.5803 12.9722 10.7603L17.8922 12.8803C18.0422 12.9403 18.1422 12.9403 18.1722 12.9203C18.2022 12.9003 18.2422 12.8103 18.2422 12.6503V11.3603C18.2422 10.9803 17.9222 10.4903 17.5822 10.3503L12.0022 7.94031C11.5622 7.75031 11.2522 7.27031 11.2522 6.79031V3.79031C11.2522 3.13031 10.7322 2.28031 10.1322 1.98031C10.0522 1.94031 9.95219 1.94031 9.86219 1.98031C9.28219 2.28031 8.75219 3.15031 8.75219 3.80031V6.80031C8.75219 7.27031 8.44219 7.76031 8.00219 7.95031L2.42219 10.3603C2.07219 10.5003 1.75219 10.9903 1.75219 11.3603V12.6503C1.75219 12.8103 1.79219 12.9003 1.82219 12.9203C1.85219 12.9403 1.95219 12.9403 2.10219 12.8803L7.01219 10.7603C7.19219 10.6803 7.38219 10.6403 7.56219 10.6403Z" fill="#292D32"/>
</svg>
