<svg width="24" height="24" viewBox="0 0 24 24" fill="none" xmlns="http://www.w3.org/2000/svg">
<path d="M12 22.75C6.07 22.75 1.25 17.93 1.25 12C1.25 6.07 6.07 1.25 12 1.25C17.93 1.25 22.75 6.07 22.75 12C22.75 17.93 17.93 22.75 12 22.75ZM12 2.75C6.9 2.75 2.75 6.9 2.75 12C2.75 17.1 6.9 21.25 12 21.25C17.1 21.25 21.25 17.1 21.25 12C21.25 6.9 17.1 2.75 12 2.75Z" fill="black"/>
<path d="M8.99828 21.7517H7.99828C7.58828 21.7517 7.24828 21.4117 7.24828 21.0017C7.24828 20.5917 7.56828 20.2617 7.97828 20.2517C6.40828 14.8637 6.40828 9.13961 7.97828 3.75165C7.78244 3.74771 7.59603 3.6668 7.4594 3.52643C7.32277 3.38606 7.24693 3.19753 7.24828 3.00165C7.24828 2.59165 7.58828 2.25165 7.99828 2.25165H8.99828C9.23828 2.25165 9.46828 2.37165 9.60828 2.56165C9.74828 2.76165 9.78828 3.01165 9.70828 3.24165C7.82828 8.93377 7.82828 15.0795 9.70828 20.7717C9.78828 21.0017 9.74828 21.2517 9.60828 21.4517C9.46828 21.6317 9.23828 21.7517 8.99828 21.7517ZM14.9983 21.7517C14.8789 21.7527 14.7609 21.725 14.6544 21.6709C14.548 21.6168 14.456 21.5379 14.3864 21.4409C14.3168 21.3438 14.2716 21.2314 14.2545 21.1132C14.2374 20.995 14.249 20.8744 14.2883 20.7617C16.1683 15.0695 16.1683 8.92377 14.2883 3.23165C14.2568 3.13842 14.2439 3.03988 14.2505 2.94168C14.257 2.84348 14.2829 2.74753 14.3265 2.65931C14.3702 2.5711 14.4308 2.49234 14.5048 2.42754C14.5789 2.36274 14.665 2.31317 14.7583 2.28165C14.8515 2.25014 14.9501 2.23729 15.0483 2.24386C15.1465 2.25042 15.2424 2.27626 15.3306 2.3199C15.4188 2.36355 15.4976 2.42414 15.5624 2.49822C15.6272 2.5723 15.6768 2.65842 15.7083 2.75165C17.6982 8.74752 17.6982 15.2258 15.7083 21.2217C15.6083 21.5517 15.3083 21.7517 14.9983 21.7517Z" fill="black"/>
<path d="M11.9998 17.1993C9.20978 17.1993 6.42978 16.8093 3.74978 16.0193C3.73978 16.4193 3.40978 16.7493 2.99978 16.7493C2.58978 16.7493 2.24978 16.4093 2.24978 15.9993V14.9993C2.24978 14.7593 2.36978 14.5293 2.55978 14.3893C2.75978 14.2493 3.00978 14.2093 3.23978 14.2893C8.9319 16.1693 15.0777 16.1693 20.7698 14.2893C20.8829 14.2506 21.0036 14.2395 21.1219 14.2569C21.2402 14.2743 21.3526 14.3197 21.4498 14.3893C21.6498 14.5293 21.7598 14.7593 21.7598 14.9993V15.9993C21.7598 16.4093 21.4198 16.7493 21.0098 16.7493C20.5998 16.7493 20.2698 16.4293 20.2598 16.0193C17.5698 16.8093 14.7898 17.1993 11.9998 17.1993ZM20.9998 9.74935C20.9198 9.74935 20.8398 9.73935 20.7598 9.70935C15.0677 7.82935 8.9219 7.82935 3.22978 9.70935C2.82978 9.83935 2.40978 9.62935 2.27978 9.23935C2.15978 8.83935 2.36978 8.41935 2.75978 8.28935C8.75565 6.29938 15.2339 6.29938 21.2298 8.28935C21.6198 8.41935 21.8398 8.84935 21.6998 9.23935C21.6528 9.38794 21.5595 9.51761 21.4336 9.60937C21.3076 9.70114 21.1556 9.75019 20.9998 9.74935Z" fill="black"/>
</svg>
