<svg width="25" height="24" viewBox="0 0 25 24" fill="none" xmlns="http://www.w3.org/2000/svg">
<path d="M3.25 9.10937V14.8794C3.25 16.9994 3.25 16.9994 5.25 18.3494L10.75 21.5294C11.58 22.0094 12.93 22.0094 13.75 21.5294L19.25 18.3494C21.25 16.9994 21.25 16.9994 21.25 14.8894V9.10937C21.25 6.99937 21.25 6.99937 19.25 5.64937L13.75 2.46937C12.93 1.98937 11.58 1.98937 10.75 2.46937L5.25 5.64937C3.25 6.99937 3.25 6.99937 3.25 9.10937Z" stroke="#ACACAC" stroke-width="1.5" stroke-linecap="round" stroke-linejoin="round"/>
<path d="M12.25 15C13.0456 15 13.8087 14.6839 14.3713 14.1213C14.9339 13.5587 15.25 12.7956 15.25 12C15.25 11.2044 14.9339 10.4413 14.3713 9.87868C13.8087 9.31607 13.0456 9 12.25 9C11.4544 9 10.6913 9.31607 10.1287 9.87868C9.56607 10.4413 9.25 11.2044 9.25 12C9.25 12.7956 9.56607 13.5587 10.1287 14.1213C10.6913 14.6839 11.4544 15 12.25 15Z" stroke="#3A907E" stroke-width="1.5" stroke-linecap="round" stroke-linejoin="round"/>
</svg>
